<?xml version="1.0" standalone="no"?>
<!DOCTYPE svg PUBLIC "-//W3C//DTD SVG 20010904//EN"
 "http://www.w3.org/TR/2001/REC-SVG-20010904/DTD/svg10.dtd">
<svg version="1.0" xmlns="http://www.w3.org/2000/svg"
 width="512.000000pt" height="512.000000pt" viewBox="0 0 512.000000 512.000000"
 preserveAspectRatio="xMidYMid meet">
<metadata>
Created by potrace 1.14, written by Peter Selinger 2001-2017
</metadata>
<g transform="translate(0.000000,512.000000) scale(0.100000,-0.100000)"
fill="#000000" stroke="none">
<path d="M4447 5114 c-1 -1 -27 -4 -57 -5 -110 -6 -251 -62 -348 -138 -28 -23
-133 -137 -233 -254 -100 -116 -193 -225 -208 -242 -14 -16 -62 -73 -106 -125
-44 -52 -82 -97 -85 -100 -3 -3 -13 -15 -23 -26 -18 -21 -14 -25 394 -433 227
-226 416 -410 420 -409 5 2 136 112 291 245 156 133 301 256 323 274 186 155
275 313 291 516 22 288 -178 579 -456 663 -57 18 -196 41 -203 34z m159 -339
c67 -33 132 -97 161 -162 32 -70 38 -96 36 -176 -1 -52 -8 -81 -31 -130 -35
-71 -61 -101 -152 -177 -36 -29 -76 -63 -90 -76 -14 -12 -63 -55 -110 -94 -47
-40 -109 -93 -139 -119 -29 -25 -58 -48 -63 -50 -9 -3 -438 417 -438 429 0 3
12 19 28 35 15 17 65 75 112 130 47 55 87 102 90 105 3 3 39 45 80 95 103 123
147 164 205 191 101 47 211 46 311 -1z"/>
<path d="M2999 3823 c-178 -180 -219 -235 -253 -336 -104 -311 70 -646 384
-742 67 -20 196 -27 270 -13 73 13 179 58 232 99 56 43 358 341 358 353 0 10
-801 816 -810 816 -3 0 -85 -80 -181 -177z m365 -430 c77 -78 156 -157 174
-176 l33 -34 -56 -55 c-79 -77 -132 -102 -220 -102 -167 -1 -289 129 -279 297
4 67 33 122 100 194 l58 63 24 -23 c13 -12 88 -86 166 -164z"/>
<path d="M1582 2379 c-147 -37 -248 -101 -358 -226 -38 -43 -71 -80 -74 -83
-3 -3 -25 -30 -50 -60 -25 -30 -50 -59 -56 -65 -5 -5 -35 -39 -65 -75 -30 -36
-58 -70 -64 -76 -5 -6 -30 -35 -55 -65 -25 -29 -80 -93 -123 -143 -42 -50 -76
-95 -74 -100 1 -4 187 -192 412 -417 l408 -409 56 47 c31 26 58 50 61 53 3 3
32 28 65 55 32 28 66 57 75 65 9 8 101 87 206 175 301 255 369 334 414 485 27
90 30 113 30 210 1 289 -196 542 -485 625 -86 26 -233 27 -323 4z m263 -299
c221 -73 316 -342 188 -533 -24 -35 -113 -118 -275 -257 -132 -113 -245 -208
-252 -212 -8 -4 -94 75 -229 210 l-216 218 27 29 c15 17 65 75 112 130 47 55
97 113 111 130 15 16 61 70 103 120 85 99 146 145 221 168 59 17 153 16 210
-3z"/>
<path d="M4325 2383 c-116 -24 -223 -81 -313 -166 -39 -36 -48 -46 -151 -167
-35 -41 -85 -100 -111 -130 -26 -30 -120 -140 -209 -244 l-160 -189 411 -411
c227 -226 416 -410 420 -408 10 3 37 26 353 295 389 333 370 316 419 381 87
116 126 227 131 376 6 161 -35 291 -131 419 -148 197 -416 296 -659 244z m289
-322 c75 -37 137 -100 174 -179 22 -48 27 -71 26 -142 0 -89 -17 -144 -65
-211 -12 -17 -135 -127 -272 -245 l-251 -215 -217 217 -218 218 20 25 c12 14
35 42 52 61 18 19 52 60 77 90 55 67 90 108 111 129 8 9 49 57 91 106 78 92
108 119 166 149 85 44 210 42 306 -3z"/>
<path d="M284 1108 c-184 -187 -213 -227 -256 -345 -26 -73 -32 -225 -12 -309
37 -160 150 -304 299 -381 44 -22 96 -43 115 -47 19 -3 46 -8 60 -11 29 -7
156 -7 185 -1 160 33 221 72 430 279 l180 177 -411 410 -410 411 -180 -183z
m378 -442 l195 -195 -54 -55 c-29 -30 -77 -66 -105 -80 -132 -66 -299 -8 -371
128 -30 57 -30 183 0 241 20 38 121 155 134 155 4 0 94 -87 201 -194z"/>
<path d="M3024 1122 c-199 -199 -247 -267 -282 -402 -14 -54 -13 -212 2 -271
48 -190 195 -349 384 -413 23 -9 42 -13 42 -11 0 3 12 0 27 -6 30 -11 146 -13
208 -4 142 23 224 77 432 283 l174 172 -203 203 c-112 111 -296 295 -410 409
l-207 208 -167 -168z m366 -457 l195 -195 -50 -51 c-28 -28 -70 -63 -95 -77
-39 -24 -56 -27 -130 -27 -97 0 -142 17 -200 75 -49 49 -73 104 -78 177 -6 91
17 149 90 228 34 36 64 65 67 65 3 0 94 -88 201 -195z"/>
</g>
</svg>
